<svg width="360" height="40" viewBox="0 0 360 40" fill="none" xmlns="http://www.w3.org/2000/svg">
<rect width="360" height="40" fill="#222227"/>
<path d="M23.7477 24.8437C22.944 24.8437 22.2664 24.7183 21.715 24.4674C21.1636 24.2076 20.743 23.8716 20.4533 23.4595C20.1729 23.0474 20.0234 22.6084 20.0047 22.1425C19.9953 22.0618 20.0187 21.9991 20.0748 21.9543C20.1402 21.9006 20.215 21.8737 20.2991 21.8737H21.6028C21.7056 21.8737 21.7897 21.8961 21.8552 21.9409C21.9299 21.9767 21.986 22.0439 22.0234 22.1425C22.1168 22.4112 22.2477 22.6307 22.4159 22.801C22.5935 22.9712 22.7944 23.0966 23.0187 23.1773C23.2524 23.2579 23.4954 23.2982 23.7477 23.2982C24.0841 23.2982 24.3879 23.2355 24.6589 23.1101C24.9393 22.9757 25.1636 22.7786 25.3318 22.5188C25.5 22.2589 25.5842 21.9409 25.5842 21.5646C25.5842 21.2331 25.5047 20.9464 25.3458 20.7045C25.187 20.4626 24.9673 20.2744 24.687 20.14C24.4159 19.9967 24.1028 19.925 23.7477 19.925C23.486 19.925 23.2711 19.9563 23.1028 20.0191C22.9346 20.0818 22.7897 20.1535 22.6683 20.2341C22.5561 20.3147 22.4533 20.3864 22.3598 20.4491C22.2757 20.5118 22.1776 20.5432 22.0654 20.5432H20.7757C20.6916 20.5432 20.6168 20.5163 20.5514 20.4626C20.4953 20.3998 20.4673 20.3282 20.4673 20.2475L20.958 15.6513C20.9673 15.5348 21.0094 15.4452 21.0841 15.3825C21.1589 15.3198 21.2477 15.2885 21.3505 15.2885H26.6215C26.715 15.2885 26.7944 15.3198 26.8599 15.3825C26.9253 15.4452 26.958 15.5214 26.958 15.611V16.5114C26.958 16.601 26.9253 16.6772 26.8599 16.7399C26.7944 16.8026 26.715 16.834 26.6215 16.834H22.5701L22.3458 19.0246C22.514 18.917 22.7383 18.814 23.0187 18.7155C23.2991 18.6169 23.6869 18.5676 24.1823 18.5676C24.6309 18.5676 25.0561 18.6393 25.458 18.7827C25.8692 18.917 26.2337 19.1186 26.5515 19.3874C26.8692 19.6472 27.1169 19.9653 27.2944 20.3416C27.4814 20.7089 27.5748 21.13 27.5748 21.6049C27.5748 22.2589 27.4159 22.8279 27.0982 23.3117C26.7804 23.7955 26.3365 24.1718 25.7664 24.4406C25.1963 24.7093 24.5234 24.8437 23.7477 24.8437Z" fill="white"/>
<path d="M29.3709 19.9922C29.2774 19.9922 29.198 19.9608 29.1325 19.8981C29.0671 19.8354 29.0344 19.7592 29.0344 19.6696V18.3929C29.0344 18.2944 29.0671 18.2137 29.1325 18.151C29.198 18.0883 29.2774 18.0569 29.3709 18.0569H30.7587C30.8615 18.0569 30.9456 18.0883 31.0111 18.151C31.0765 18.2137 31.1092 18.2944 31.1092 18.3929V19.6696C31.1092 19.7592 31.0765 19.8354 31.0111 19.8981C30.9456 19.9608 30.8615 19.9922 30.7587 19.9922H29.3709ZM29.3709 24.6959C29.2774 24.6959 29.198 24.6646 29.1325 24.6018C29.0671 24.5391 29.0344 24.463 29.0344 24.3734V23.0966C29.0344 22.9981 29.0671 22.9175 29.1325 22.8547C29.198 22.792 29.2774 22.7607 29.3709 22.7607H30.7587C30.8615 22.7607 30.9456 22.792 31.0111 22.8547C31.0765 22.9175 31.1092 22.9981 31.1092 23.0966V24.3734C31.1092 24.463 31.0765 24.5391 31.0111 24.6018C30.9456 24.6646 30.8615 24.6959 30.7587 24.6959H29.3709Z" fill="white"/>
<path d="M35.8814 24.6959C35.7786 24.6959 35.6945 24.6646 35.629 24.6018C35.573 24.5391 35.5449 24.463 35.5449 24.3734V17.4118L33.4141 18.9842C33.33 19.038 33.2458 19.0604 33.1617 19.0514C33.0776 19.0335 33.0029 18.9842 32.9374 18.9036L32.3486 18.1779C32.2926 18.0973 32.2692 18.0121 32.2786 17.9225C32.2972 17.8329 32.3486 17.7613 32.4328 17.7075L35.573 15.3825C35.629 15.3377 35.6851 15.3109 35.7412 15.3019C35.7973 15.2929 35.858 15.2885 35.9234 15.2885H37.1571C37.2505 15.2885 37.33 15.3198 37.3954 15.3825C37.4608 15.4452 37.4935 15.5214 37.4935 15.611V24.3734C37.4935 24.463 37.4608 24.5391 37.3954 24.6018C37.33 24.6646 37.2505 24.6959 37.1571 24.6959H35.8814Z" fill="white"/>
<path d="M42.8472 24.8303C42.193 24.8303 41.6275 24.7541 41.1509 24.6018C40.6743 24.4495 40.2771 24.2524 39.9593 24.0105C39.6509 23.7596 39.4172 23.4909 39.2584 23.2042C39.0995 22.9085 39.0154 22.6173 39.006 22.3306C39.006 22.25 39.0341 22.1873 39.0901 22.1425C39.1556 22.0887 39.2303 22.0618 39.3144 22.0618H40.5761C40.6696 22.0618 40.749 22.0797 40.8144 22.1156C40.8799 22.1514 40.9359 22.2231 40.9827 22.3306C41.0668 22.5725 41.2023 22.7651 41.3892 22.9085C41.5855 23.0518 41.8098 23.1549 42.0621 23.2176C42.3144 23.2714 42.5808 23.2982 42.8612 23.2982C43.4219 23.2982 43.8659 23.1728 44.193 22.9219C44.5294 22.6621 44.6976 22.2948 44.6976 21.8199C44.6976 21.3451 44.5434 21.0046 44.235 20.7985C43.9266 20.5835 43.4967 20.476 42.9453 20.476H41.5014C41.3986 20.476 41.3144 20.4491 41.249 20.3954C41.1836 20.3326 41.1509 20.252 41.1509 20.1535V19.589C41.1509 19.4994 41.1696 19.4233 41.207 19.3605C41.2537 19.2889 41.3004 19.2306 41.3472 19.1858L43.8565 16.834H39.8471C39.7443 16.834 39.6602 16.8026 39.5948 16.7399C39.5387 16.6772 39.5107 16.601 39.5107 16.5114V15.6244C39.5107 15.5259 39.5387 15.4452 39.5948 15.3825C39.6602 15.3198 39.7443 15.2885 39.8471 15.2885H45.8612C45.964 15.2885 46.0481 15.3198 46.1135 15.3825C46.179 15.4452 46.2117 15.5259 46.2117 15.6244V16.4308C46.2117 16.5114 46.193 16.5831 46.1556 16.6458C46.1182 16.7085 46.0762 16.7623 46.0294 16.8071L43.6042 19.1993L43.7724 19.2127C44.3425 19.2575 44.8472 19.3829 45.2864 19.589C45.735 19.7861 46.0808 20.0773 46.3238 20.4626C46.5762 20.8478 46.7023 21.3316 46.7023 21.914C46.7023 22.5232 46.5341 23.0474 46.1976 23.4864C45.8705 23.9164 45.4173 24.2479 44.8378 24.4809C44.2584 24.7138 43.5948 24.8303 42.8472 24.8303Z" fill="white"/>
<path d="M51.9509 24.6959C51.8575 24.6959 51.778 24.6646 51.7126 24.6018C51.6472 24.5391 51.6145 24.463 51.6145 24.3734V15.6244C51.6145 15.5259 51.6472 15.4452 51.7126 15.3825C51.778 15.3198 51.8575 15.2885 51.9509 15.2885H55.708C56.4369 15.2885 57.0724 15.4004 57.6145 15.6244C58.1566 15.8395 58.5771 16.171 58.8762 16.6189C59.1753 17.058 59.3248 17.609 59.3248 18.272C59.3248 18.9439 59.1753 19.4994 58.8762 19.9384C58.5771 20.3685 58.1566 20.691 57.6145 20.906C57.0724 21.1211 56.4369 21.2286 55.708 21.2286H53.6192V24.3734C53.6192 24.463 53.5864 24.5391 53.521 24.6018C53.465 24.6646 53.3855 24.6959 53.2827 24.6959H51.9509ZM53.5911 19.7368H55.6379C56.1799 19.7368 56.5958 19.6159 56.8855 19.374C57.1753 19.1231 57.3201 18.7558 57.3201 18.272C57.3201 17.824 57.1846 17.4656 56.9136 17.1968C56.6425 16.9191 56.2173 16.7802 55.6379 16.7802H53.5911V19.7368Z" fill="white"/>
<path d="M61.2058 24.6959C61.103 24.6959 61.0189 24.6646 60.9535 24.6018C60.8881 24.5391 60.8554 24.463 60.8554 24.3734V15.6244C60.8554 15.5259 60.8881 15.4452 60.9535 15.3825C61.0189 15.3198 61.103 15.2885 61.2058 15.2885H62.3133C62.4442 15.2885 62.5423 15.3243 62.6077 15.396C62.6731 15.4587 62.7152 15.508 62.7339 15.5438L65.4395 20.3819L68.1732 15.5438C68.1918 15.508 68.2339 15.4587 68.2993 15.396C68.3647 15.3243 68.4629 15.2885 68.5937 15.2885H69.6872C69.79 15.2885 69.8741 15.3198 69.9395 15.3825C70.0049 15.4452 70.0377 15.5259 70.0377 15.6244V24.3734C70.0377 24.463 70.0049 24.5391 69.9395 24.6018C69.8741 24.6646 69.79 24.6959 69.6872 24.6959H68.5096C68.4068 24.6959 68.3227 24.6646 68.2573 24.6018C68.2012 24.5391 68.1732 24.463 68.1732 24.3734V18.5542L66.2105 22.1425C66.1638 22.2231 66.103 22.2948 66.0283 22.3575C65.9535 22.4112 65.8554 22.4381 65.7339 22.4381H65.1591C65.0283 22.4381 64.9255 22.4112 64.8507 22.3575C64.7853 22.2948 64.7292 22.2231 64.6825 22.1425L62.7199 18.5542V24.3734C62.7199 24.463 62.6871 24.5391 62.6217 24.6018C62.5563 24.6646 62.4769 24.6959 62.3834 24.6959H61.2058Z" fill="white"/>
<path d="M249.103 13.3773C246.402 13.3773 243.798 14.1642 241.58 15.5413L241.001 15.8364L249.007 26.7547L257.012 15.8364L256.53 15.5413C254.311 14.1642 251.804 13.3773 249.103 13.3773ZM255.469 16.1315L254.119 17.902C252.575 17.0168 250.839 16.6233 249.103 16.6233C247.367 16.6233 245.631 17.0168 244.087 17.902L242.737 16.1315C244.666 15.0495 246.885 14.4593 249.103 14.4593C251.418 14.4593 253.54 15.0495 255.469 16.1315Z" fill="white"/>
<path d="M281.249 26.7547H295.258V13.3773L281.553 26.3641L281.249 26.7547ZM294.142 16.1114V25.6806H291.908V18.2596L294.142 16.1114Z" fill="white"/>
<path d="M261.543 26.7547H275.553V13.3773L261.848 26.3641L261.543 26.7547ZM274.437 16.1114V25.6806H272.203V18.2596L274.437 16.1114Z" fill="white"/>
<path d="M308.523 14.2758H307.915V13.8765C307.915 13.577 307.713 13.3773 307.409 13.3773H304.47C304.166 13.3773 303.963 13.577 303.963 13.8765V14.2758H303.355C302.545 14.2758 301.937 14.8748 301.937 15.7733V25.2573C301.937 26.0559 302.545 26.7547 303.355 26.7547H308.523C309.334 26.7547 309.942 26.0559 309.942 25.2573V15.7733C309.942 14.9746 309.334 14.2758 308.523 14.2758ZM308.827 15.7733V20.3655H303.051V15.7733C303.051 15.5736 303.153 15.3739 303.355 15.3739H308.523C308.625 15.3739 308.827 15.5736 308.827 15.7733Z" fill="white"/>
<path d="M316.584 24.711C316.502 24.711 316.433 24.6845 316.379 24.6314C316.333 24.5695 316.311 24.4987 316.311 24.4191C316.311 24.3925 316.32 24.3527 316.338 24.2996L319.737 16.5758H315.259C315.168 16.5758 315.091 16.5492 315.027 16.4961C314.973 16.4342 314.945 16.359 314.945 16.2705V15.7397C314.945 15.6424 314.973 15.5671 315.027 15.5141C315.091 15.4521 315.168 15.4212 315.259 15.4212H320.857C320.966 15.4212 321.048 15.4521 321.103 15.5141C321.157 15.5671 321.184 15.6424 321.184 15.7397V16.2307C321.184 16.3457 321.175 16.4386 321.157 16.5094C321.139 16.5802 321.112 16.6598 321.075 16.7483L317.717 24.3792C317.68 24.45 317.63 24.5252 317.567 24.6049C317.512 24.6756 317.43 24.711 317.321 24.711H316.584Z" fill="white"/>
<path d="M325.877 24.8437C325.249 24.8437 324.716 24.7508 324.279 24.565C323.852 24.3704 323.501 24.105 323.228 23.7688C322.955 23.4326 322.755 23.0477 322.627 22.6142C322.509 22.1806 322.441 21.7206 322.423 21.234C322.414 20.9951 322.404 20.7429 322.395 20.4775C322.395 20.2121 322.395 19.9422 322.395 19.668C322.404 19.3937 322.414 19.1327 322.423 18.885C322.432 18.3983 322.5 17.9383 322.627 17.5047C322.764 17.0712 322.969 16.6908 323.242 16.3634C323.515 16.0272 323.865 15.7662 324.293 15.5804C324.73 15.3858 325.258 15.2885 325.877 15.2885C326.505 15.2885 327.033 15.3858 327.46 15.5804C327.897 15.7662 328.252 16.0272 328.525 16.3634C328.798 16.6908 328.999 17.0712 329.126 17.5047C329.263 17.9383 329.335 18.3983 329.344 18.885C329.354 19.1327 329.358 19.3937 329.358 19.668C329.367 19.9422 329.367 20.2121 329.358 20.4775C329.358 20.7429 329.354 20.9951 329.344 21.234C329.335 21.7206 329.263 22.1806 329.126 22.6142C328.999 23.0477 328.798 23.4326 328.525 23.7688C328.261 24.105 327.911 24.3704 327.474 24.565C327.046 24.7508 326.514 24.8437 325.877 24.8437ZM325.877 23.7024C326.587 23.7024 327.11 23.4768 327.447 23.0256C327.793 22.5744 327.97 21.955 327.979 21.1676C327.997 20.911 328.006 20.6633 328.006 20.4244C328.006 20.1767 328.006 19.9334 328.006 19.6945C328.006 19.4468 327.997 19.2035 327.979 18.9646C327.97 18.1949 327.793 17.58 327.447 17.1199C327.11 16.651 326.587 16.4165 325.877 16.4165C325.176 16.4165 324.653 16.651 324.307 17.1199C323.97 17.58 323.792 18.1949 323.774 18.9646C323.774 19.2035 323.77 19.4468 323.761 19.6945C323.761 19.9334 323.761 20.1767 323.761 20.4244C323.77 20.6633 323.774 20.911 323.774 21.1676C323.792 21.955 323.974 22.5744 324.32 23.0256C324.666 23.4768 325.185 23.7024 325.877 23.7024Z" fill="white"/>
<path d="M331.703 24.711C331.512 24.711 331.416 24.6226 331.416 24.4456C331.416 24.3925 331.435 24.3439 331.471 24.2996L338.215 15.6733C338.279 15.5937 338.338 15.5318 338.393 15.4875C338.456 15.4433 338.547 15.4212 338.666 15.4212H339.116C339.307 15.4212 339.403 15.5096 339.403 15.6866C339.403 15.7397 339.385 15.7883 339.348 15.8326L332.618 24.4589C332.554 24.5385 332.49 24.6004 332.427 24.6447C332.372 24.6889 332.281 24.711 332.154 24.711H331.703ZM337.956 24.7907C337.364 24.7907 336.896 24.627 336.55 24.2996C336.213 23.9723 336.026 23.5432 335.99 23.0123C335.981 22.7823 335.976 22.5876 335.976 22.4284C335.976 22.2603 335.981 22.0524 335.99 21.8046C336.026 21.2738 336.204 20.8447 336.522 20.5173C336.85 20.1811 337.328 20.013 337.956 20.013C338.593 20.013 339.071 20.1811 339.389 20.5173C339.717 20.8447 339.899 21.2738 339.935 21.8046C339.954 22.0524 339.963 22.2603 339.963 22.4284C339.963 22.5876 339.954 22.7823 339.935 23.0123C339.899 23.5432 339.708 23.9723 339.362 24.2996C339.025 24.627 338.557 24.7907 337.956 24.7907ZM337.956 23.9148C338.202 23.9148 338.393 23.8661 338.529 23.7688C338.666 23.6714 338.766 23.552 338.83 23.4104C338.893 23.26 338.93 23.1096 338.939 22.9592C338.957 22.7203 338.966 22.5301 338.966 22.3886C338.966 22.247 338.957 22.0701 338.939 21.8577C338.93 21.6188 338.852 21.3976 338.707 21.1942C338.561 20.9907 338.311 20.8889 337.956 20.8889C337.61 20.8889 337.364 20.9907 337.219 21.1942C337.082 21.3976 337.005 21.6188 336.987 21.8577C336.977 22.0701 336.973 22.247 336.973 22.3886C336.973 22.5301 336.977 22.7203 336.987 22.9592C337.005 23.1096 337.041 23.26 337.096 23.4104C337.16 23.552 337.26 23.6714 337.396 23.7688C337.542 23.8661 337.728 23.9148 337.956 23.9148ZM332.85 20.0794C332.249 20.0794 331.78 19.9245 331.444 19.6149C331.107 19.3052 330.92 18.885 330.884 18.3541C330.875 18.1241 330.87 17.9294 330.87 17.7702C330.87 17.6021 330.875 17.3942 330.884 17.1464C330.911 16.6156 331.089 16.1865 331.416 15.8591C331.744 15.5229 332.222 15.3548 332.85 15.3548C333.487 15.3548 333.965 15.5229 334.283 15.8591C334.611 16.1865 334.789 16.6156 334.816 17.1464C334.834 17.3942 334.843 17.6021 334.843 17.7702C334.843 17.9294 334.834 18.1241 334.816 18.3541C334.789 18.885 334.602 19.3052 334.256 19.6149C333.919 19.9245 333.451 20.0794 332.85 20.0794ZM332.85 19.2566C333.087 19.2566 333.273 19.2079 333.41 19.1106C333.555 19.0132 333.66 18.8938 333.724 18.7522C333.787 18.6018 333.824 18.4514 333.833 18.301C333.851 18.0621 333.86 17.8763 333.86 17.7436C333.86 17.6021 333.851 17.4207 333.833 17.1995C333.824 16.9606 333.742 16.7394 333.587 16.5359C333.442 16.3325 333.196 16.2307 332.85 16.2307C332.504 16.2307 332.258 16.3325 332.113 16.5359C331.976 16.7394 331.899 16.9606 331.881 17.1995C331.871 17.4207 331.867 17.6021 331.867 17.7436C331.867 17.8763 331.871 18.0621 331.881 18.301C331.899 18.4514 331.935 18.6018 331.99 18.7522C332.054 18.8938 332.154 19.0132 332.29 19.1106C332.427 19.2079 332.613 19.2566 332.85 19.2566Z" fill="white"/>
</svg>
