<svg width="10" height="10" viewBox="0 0 10 10" fill="none" xmlns="http://www.w3.org/2000/svg">
<path fill-rule="evenodd" clip-rule="evenodd" d="M9.98176 5.00006C9.98176 7.71128 7.78388 9.90915 5.07267 9.90915C2.36145 9.90915 0.163574 7.71128 0.163574 5.00006C0.163574 2.28885 2.36145 0.0909729 5.07267 0.0909729C7.78388 0.0909729 9.98176 2.28885 9.98176 5.00006ZM9.36812 5.00006C9.36812 7.37238 7.44498 9.29552 5.07267 9.29552C2.70035 9.29552 0.777212 7.37238 0.777212 5.00006C0.777212 2.62775 2.70035 0.704609 5.07267 0.704609C7.44498 0.704609 9.36812 2.62775 9.36812 5.00006ZM5.07267 8.68188C7.10608 8.68188 8.75448 7.03348 8.75448 5.00006C8.75448 2.96665 7.10608 1.31825 5.07267 1.31825C3.03925 1.31825 1.39085 2.96665 1.39085 5.00006C1.39085 7.03348 3.03925 8.68188 5.07267 8.68188Z" fill="white" fill-opacity="0.9"/>
</svg>
